<svg version="1.1" viewBox="0.0 0.0 1920.0 1080.0" fill="none" stroke="none" stroke-linecap="square" stroke-miterlimit="10" xmlns:xlink="http://www.w3.org/1999/xlink" xmlns="http://www.w3.org/2000/svg"><clipPath id="g36dc8d16b78_0_0.0"><path d="m0 0l1920.0 0l0 1080.0l-1920.0 0l0 -1080.0z" clip-rule="nonzero"/></clipPath><g clip-path="url(#g36dc8d16b78_0_0.0)"><path fill="#eff1f6" d="m0 0l1920.0 0l0 1080.0l-1920.0 0z" fill-rule="evenodd"/><path fill="#000000" fill-opacity="0.0" d="m52.677166 213.69554l1411.5276 0" fill-rule="evenodd"/><path stroke="#00c0c0" stroke-width="3.0" stroke-linejoin="round" stroke-linecap="butt" d="m52.677166 213.69554l1411.5276 0" fill-rule="evenodd"/><path fill="#000000" fill-opacity="0.0" d="m65.44882 93.44357l1789.1023 0l0 120.25197l-1789.1023 0z" fill-rule="evenodd"/><path fill="#333333" d="m130.98007 172.62357q8.125 5.171875 25.828125 8.265625l-3.0625 9.5625q-20.53125 -4.671875 -30.015625 -12.1875q-12.296875 7.828125 -31.828125 12.484375l-3.5 -8.953125q18.375 -3.421875 28.640625 -9.328125q-6.78125 -7.546875 -10.640625 -17.21875l-9.40625 0l0 -7.84375l21.28125 0l0 -8.1875l-28.0 0l0 -7.859375l28.0 0l0 -9.328125l7.6875 0q5.765625 1.140625 1.328125 4.109375l0 5.21875l28.296875 0l0 7.859375l-28.296875 0l0 8.1875l11.78125 0l2.1875 -2.1875l7.0625 6.25l-2.390625 1.171875q-7.203125 13.265625 -14.953125 19.984375zm-15.03125 -17.375q3.0 6.921875 8.203125 11.875q6.03125 -5.03125 9.6875 -11.875l-17.890625 0zm63.328125 -26.21875q5.34375 0.640625 1.390625 3.5l0 14.0l14.890625 0l0 -23.328125l6.75 0q5.375 0.640625 1.390625 3.5l0 19.828125l14.59375 0l0 -17.21875l6.78125 0q5.3125 0.671875 1.375 3.5l0 24.1875l-8.15625 0l0 -2.625l-14.59375 0l0 22.765625l16.9375 0l0 -17.78125l6.765625 0q5.359375 0.671875 1.375 3.5l0 25.34375l-8.140625 0l0 -3.203125l-42.890625 0l0 4.078125l-8.140625 0l0 -30.015625l6.765625 0q5.359375 0.671875 1.375 3.5l0 14.578125l17.8125 0l0 -22.765625l-14.890625 0l0 3.21875l-8.15625 0l0 -28.5625l6.765625 0zm101.59375 13.578125q-4.9375 28.96875 -12.203125 36.21875q-4.109375 4.125 -8.6875 4.125q-5.140625 0 -8.09375 -2.96875q-7.34375 -7.328125 -7.34375 -18.296875q0 -13.328125 9.390625 -22.6875q10.234375 -10.265625 25.015625 -10.265625q13.3125 0 20.921875 7.640625q8.515625 8.484375 8.515625 20.0625q0 12.4375 -7.921875 20.34375q-5.09375 5.109375 -16.234375 10.203125l-8.046875 -8.046875q11.765625 -3.6875 17.40625 -9.328125q5.1875 -5.203125 5.1875 -12.59375q0 -8.84375 -5.765625 -14.640625q-5.765625 -5.765625 -13.9375 -5.40625l1.234375 0.625q5.796875 2.40625 0.5625 5.015625zm-9.09375 -4.796875q-5.671875 1.296875 -10.984375 6.59375q-7.234375 7.265625 -7.234375 17.859375q0 6.21875 4.03125 10.265625q0.546875 0.53125 1.8125 0.53125q1.265625 0 2.984375 -1.703125q6.40625 -6.421875 9.390625 -33.546875zm84.75 28.515625l-4.640625 0q0.875 21.46875 -29.71875 24.890625l-2.78125 -8.703125q24.5625 -2.0625 24.0625 -16.1875l-4.734375 0l0 2.921875l-8.140625 0l0 -45.171875l46.921875 0l0 45.171875l-8.140625 0l0 -2.921875l-4.6875 0l0 13.71875q0 1.1875 0.890625 1.1875l10.484375 0q1.828125 0 2.390625 -1.5l1.09375 -5.5l8.6875 2.359375l-1.421875 6.046875q-1.34375 6.4375 -8.125 6.4375l-15.734375 0q-6.40625 0 -6.40625 -6.109375l0 -16.640625zm-17.8125 -7.84375l30.640625 0l0 -4.109375l-30.640625 0l0 4.109375zm0 -11.953125l30.640625 0l0 -3.234375l-30.640625 0l0 3.234375zm0 -11.09375l30.640625 0l0 -3.515625l-30.640625 0l0 3.515625zm119.78125 41.625q-15.546875 -12.703125 -17.828125 -23.125q-3.546875 12.796875 -19.171875 24.28125l-5.296875 -8.703125q20.515625 -14.265625 20.234375 -35.84375l-13.421875 0l0 -8.71875l21.625 0q-1.5 30.265625 19.984375 43.6875l-6.125 8.421875zm-62.1875 4.484375q6.328125 -2.8125 12.125 -6.234375l0 -16.265625l-11.09375 0l0 -8.734375l19.234375 0l0 25.25q2.90625 3.625 13.125 3.625l36.09375 0l-1.578125 8.734375l-34.515625 0q-12.5 0 -17.875 -6.46875q-4.71875 4.453125 -10.796875 8.75l-4.71875 -8.65625zm10.765625 -58.375q6.5 4.09375 13.09375 12.359375l-6.90625 6.890625q-5.953125 -7.625 -12.734375 -12.703125l6.546875 -6.546875zm121.421844 43.078125q-2.65625 12.015625 -11.953125 22.265625l-8.2968445 -4.75q9.9374695 -9.28125 12.5468445 -20.46875q-9.1405945 -3.40625 -18.671844 -4.71875q-7.59375 16.3125 -10.375 19.078125q-3.8125 3.84375 -8.96875 3.84375q-3.984375 0 -6.640625 -2.671875q-2.96875 -2.953125 -2.96875 -8.6875q0 -6.609375 6.171875 -12.765625q6.75 -6.765625 17.21875 -6.765625q3.21875 -8.296875 5.375 -14.109375q-6.0625 1.515625 -15.15625 3.46875l-3.65625 -8.109375q11.109375 -1.359375 19.703125 -3.375l4.03125 -1.671875l5.4530945 4.171875q5.15625 3.109375 -0.1875 4.5625q-3.5155945 6.21875 -7.2968445 15.546875q7.9530945 0.984375 17.171844 4.0625q0.453125 -5.46875 0.109375 -17.078125l6.96875 1.46875q6.015625 1.09375 1.515625 4.09375q0 9.046875 -0.5 14.34375q4.765625 1.765625 13.140625 6.109375l-3.984375 7.9375q-7.140625 -4.078125 -10.75 -5.78125zm-35.03122 -7.78125q-4.375 0 -8.125 3.734375q-4.328125 4.328125 -4.328125 7.9375q0 1.265625 0.828125 2.078125q0.546875 0.546875 1.8125 0.546875q1.984375 0 3.703125 -2.671875q1.703125 -2.578125 6.109375 -11.625z" fill-rule="nonzero"/><path fill="#000000" fill-opacity="0.0" d="m969.2651 831.3517l855.7481 0l0 168.06299l-855.7481 0z" fill-rule="evenodd"/><path fill="#595959" d="m1381.3529 876.9392l15.8125 0l22.078125 31.671875l-0.46875 0l22.09375 -31.671875l15.8125 0l-31.21875 41.796875l0 -0.546875l24.15625 0l0 8.3125l-24.15625 0l0 5.015625l24.15625 0l0 8.3125l-24.15625 0l0 11.671875l-12.890625 0l0 -11.671875l-24.578125 0l0 -8.3125l24.578125 0l0 -5.015625l-24.578125 0l0 -8.3125l24.578125 0l0 0.546875l-31.21875 -41.796875z" fill-rule="nonzero"/><path fill="#595959" d="m1530.5248 876.9236l0 8.078125l-29.328125 67.75l-15.828125 0l29.3125 -64.109375l-37.75 0l0 -11.71875l53.59375 0zm20.30127 64.421875l1.0 0q6.25 0 10.75 -1.53125q4.5 -1.546875 7.40625 -4.453125q2.921875 -2.921875 4.328125 -7.15625q1.40625 -4.25 1.40625 -9.671875l0 -14.375q0 -4.109375 -0.8125 -7.234375q-0.796875 -3.125 -2.28125 -5.171875q-1.484375 -2.0625 -3.4375 -3.109375q-1.953125 -1.046875 -4.296875 -1.046875q-2.5 0 -4.421875 1.234375q-1.921875 1.21875 -3.25 3.3125q-1.328125 2.078125 -2.03125 4.765625q-0.703125 2.671875 -0.703125 5.59375q0 2.90625 0.671875 5.546875q0.671875 2.625 2.03125 4.640625q1.359375 2.0 3.375 3.171875q2.03125 1.171875 4.796875 1.171875q2.65625 0 4.765625 -1.015625q2.109375 -1.015625 3.59375 -2.6875q1.484375 -1.671875 2.28125 -3.703125q0.8125 -2.03125 0.8125 -4.109375l4.953125 2.703125q0 3.65625 -1.5625 7.203125q-1.5625 3.53125 -4.359375 6.421875q-2.78125 2.890625 -6.421875 4.609375q-3.640625 1.71875 -7.8125 1.71875q-5.3125 0 -9.421875 -1.953125q-4.109375 -1.953125 -6.953125 -5.40625q-2.84375 -3.46875 -4.296875 -8.109375q-1.453125 -4.640625 -1.453125 -10.046875q0 -5.53125 1.796875 -10.375q1.796875 -4.84375 5.15625 -8.53125q3.359375 -3.703125 8.0625 -5.8125q4.71875 -2.109375 10.5 -2.109375q5.78125 0 10.515625 2.25q4.734375 2.234375 8.125 6.328125q3.390625 4.078125 5.234375 9.765625q1.84375 5.671875 1.84375 12.59375l0 5.203125q0 7.40625 -1.59375 13.765625q-1.578125 6.34375 -4.734375 11.46875q-3.140625 5.125 -7.8125 8.78125q-4.65625 3.640625 -10.796875 5.578125q-6.140625 1.921875 -13.75 1.921875l-1.203125 0l0 -12.140625zm65.41077 -1.25l-0.046875 10.046875q0 5.78125 -2.890625 11.671875q-2.890625 5.890625 -7.3125 9.640625l-7.8125 -4.015625q1.296875 -2.390625 2.546875 -4.796875q1.25 -2.390625 2.078125 -5.265625q0.84375 -2.859375 0.84375 -6.5l0 -10.78125l12.59375 0zm26.778687 -31.765625l8.015625 0q3.84375 0 6.34375 -1.328125q2.5 -1.328125 3.71875 -3.75q1.234375 -2.421875 1.234375 -5.65625q0 -2.90625 -1.125 -5.171875q-1.109375 -2.265625 -3.40625 -3.5625q-2.296875 -1.3125 -5.78125 -1.3125q-2.765625 0 -5.109375 1.125q-2.328125 1.109375 -3.734375 3.09375q-1.40625 1.984375 -1.40625 4.796875l-15.0625 0q0 -6.25 3.359375 -10.890625q3.359375 -4.640625 9.03125 -7.234375q5.6875 -2.609375 12.5 -2.609375q7.71875 0 13.5 2.484375q5.78125 2.46875 9.0 7.265625q3.234375 4.78125 3.234375 11.859375q0 3.59375 -1.671875 6.953125q-1.65625 3.359375 -4.765625 6.046875q-3.09375 2.6875 -7.53125 4.28125q-4.421875 1.578125 -9.9375 1.578125l-10.40625 0l0 -7.96875zm0 11.40625l0 -7.765625l10.40625 0q6.203125 0 10.890625 1.40625q4.6875 1.40625 7.859375 4.046875q3.171875 2.625 4.78125 6.1875q1.625 3.5625 1.625 7.890625q0 5.3125 -2.03125 9.453125q-2.03125 4.140625 -5.703125 7.015625q-3.671875 2.859375 -8.578125 4.34375q-4.890625 1.484375 -10.671875 1.484375q-4.78125 0 -9.390625 -1.328125q-4.609375 -1.328125 -8.34375 -4.015625q-3.71875 -2.6875 -5.9375 -6.765625q-2.203125 -4.09375 -2.203125 -9.71875l15.046875 0q0 2.921875 1.453125 5.21875q1.46875 2.28125 4.046875 3.59375q2.578125 1.296875 5.75 1.296875q3.59375 0 6.171875 -1.328125q2.578125 -1.328125 3.953125 -3.75q1.390625 -2.421875 1.390625 -5.65625q0 -4.171875 -1.515625 -6.6875q-1.515625 -2.53125 -4.328125 -3.71875q-2.8125 -1.203125 -6.65625 -1.203125l-8.015625 0zm96.86377 -11.5625l0 13.125q0 8.53125 -1.828125 14.703125q-1.828125 6.171875 -5.234375 10.109375q-3.40625 3.9375 -8.09375 5.8125q-4.6875 1.875 -10.421875 1.875q-4.578125 0 -8.546875 -1.171875q-3.953125 -1.171875 -7.109375 -3.671875q-3.140625 -2.5 -5.40625 -6.328125q-2.265625 -3.828125 -3.46875 -9.140625q-1.1875 -5.3125 -1.1875 -12.1875l0 -13.125q0 -8.546875 1.84375 -14.65625q1.84375 -6.125 5.25 -10.03125q3.421875 -3.90625 8.109375 -5.75q4.6875 -1.859375 10.40625 -1.859375q4.59375 0 8.515625 1.171875q3.9375 1.171875 7.109375 3.625q3.1875 2.453125 5.421875 6.28125q2.234375 3.828125 3.4375 9.109375q1.203125 5.28125 1.203125 12.109375zm-15.0625 15.109375l0 -17.140625q0 -4.109375 -0.4375 -7.1875q-0.4375 -3.078125 -1.328125 -5.234375q-0.890625 -2.15625 -2.1875 -3.515625q-1.296875 -1.359375 -2.96875 -1.984375q-1.671875 -0.625 -3.703125 -0.625q-2.546875 0 -4.5 1.0q-1.953125 0.984375 -3.3125 3.15625q-1.34375 2.15625 -2.046875 5.71875q-0.703125 3.5625 -0.703125 8.671875l0 17.140625q0 4.109375 0.4375 7.234375q0.453125 3.125 1.359375 5.34375q0.90625 2.203125 2.1875 3.59375q1.28125 1.375 2.96875 2.0q1.6875 0.625 3.71875 0.625q2.5 0 4.453125 -1.015625q1.953125 -1.015625 3.328125 -3.234375q1.390625 -2.21875 2.0625 -5.8125q0.671875 -3.59375 0.671875 -8.734375zm76.254395 -15.109375l0 13.125q0 8.53125 -1.828125 14.703125q-1.828125 6.171875 -5.234375 10.109375q-3.40625 3.9375 -8.09375 5.8125q-4.6875 1.875 -10.421875 1.875q-4.578125 0 -8.546875 -1.171875q-3.953125 -1.171875 -7.109375 -3.671875q-3.140625 -2.5 -5.40625 -6.328125q-2.265625 -3.828125 -3.46875 -9.140625q-1.1875 -5.3125 -1.1875 -12.1875l0 -13.125q0 -8.546875 1.84375 -14.65625q1.84375 -6.125 5.25 -10.03125q3.421875 -3.90625 8.109375 -5.75q4.6875 -1.859375 10.40625 -1.859375q4.59375 0 8.515625 1.171875q3.9375 1.171875 7.109375 3.625q3.1875 2.453125 5.421875 6.28125q2.234375 3.828125 3.4375 9.109375q1.203125 5.28125 1.203125 12.109375zm-15.0625 15.109375l0 -17.140625q0 -4.109375 -0.4375 -7.1875q-0.4375 -3.078125 -1.328125 -5.234375q-0.890625 -2.15625 -2.1875 -3.515625q-1.296875 -1.359375 -2.96875 -1.984375q-1.671875 -0.625 -3.703125 -0.625q-2.546875 0 -4.5 1.0q-1.953125 0.984375 -3.3125 3.15625q-1.34375 2.15625 -2.046875 5.71875q-0.703125 3.5625 -0.703125 8.671875l0 17.140625q0 4.109375 0.4375 7.234375q0.453125 3.125 1.359375 5.34375q0.90625 2.203125 2.1875 3.59375q1.28125 1.375 2.96875 2.0q1.6875 0.625 3.71875 0.625q2.5 0 4.453125 -1.015625q1.953125 -1.015625 3.328125 -3.234375q1.390625 -2.21875 2.0625 -5.8125q0.671875 -3.59375 0.671875 -8.734375z" fill-rule="nonzero"/><path fill="#000000" d="m114.90195 453.83987q8.859375 11.15625 12.578125 23.546875l-4.78125 1.59375q-4.4375 -13.984375 -11.515625 -22.296875l3.71875 -2.84375zm-13.453125 4.078125q1.421875 0.875 -0.359375 1.59375q-3.1875 11.15625 -10.265625 20.359375l-4.078125 -2.65625q7.796875 -9.390625 10.453125 -21.25l4.25 1.953125zm21.25 -13.8125q2.296875 1.953125 5.65625 5.484375l-2.296875 2.125q-3.1875 -3.53125 -5.671875 -5.65625l2.3125 -1.953125zm-4.25 2.65625q2.65625 2.484375 5.65625 6.015625l-2.65625 1.953125q-2.65625 -3.546875 -5.484375 -6.015625l2.484375 -1.953125zm41.78125 13.09375q-1.234375 11.515625 -6.375 16.65625q-5.125 5.125 -13.453125 8.140625l-2.296875 -3.359375q8.140625 -2.65625 12.75 -7.265625q4.953125 -4.953125 5.65625 -16.8125l3.71875 1.234375q1.59375 0.53125 0 1.40625zm-15.046875 6.375q-2.125 -4.78125 -4.25 -7.953125l3.359375 -1.78125q2.65625 3.359375 4.609375 7.96875l-3.71875 1.765625zm-9.03125 2.65625q-2.125 -4.953125 -4.421875 -8.3125l3.53125 -1.78125q2.484375 3.375 4.4375 8.15625l-3.546875 1.9375zm59.85034 -11.671875q-3.375 19.296875 -22.140625 27.609375l-3.1875 -3.359375q17.359375 -7.078125 20.890625 -24.4375l-14.15625 0q-4.078125 6.734375 -8.5 10.796875l-3.546875 -2.296875q9.21875 -8.3125 11.875 -19.46875l4.0625 1.40625q1.0625 0.53125 -0.34375 1.0625q-0.71875 2.3125 -1.953125 4.609375l12.75 0l1.59375 -0.890625l3.1875 3.1875q1.234375 1.25 -0.53125 1.78125zm41.256226 16.8125l0 3.890625l-35.234375 0l0 -3.890625l15.40625 0l0 -17.53125l-12.40625 0l0 -3.890625l28.6875 0l0 3.890625l-12.21875 0l0 17.53125l15.765625 0zm39.6568 -13.109375q-9.390625 19.484375 -31.515625 20.546875q-0.890625 2.296875 -1.765625 0.359375l-1.421875 -4.609375q23.015625 -0.53125 30.984375 -18.9375l3.71875 2.640625zm-24.96875 0q-4.78125 -4.421875 -9.03125 -7.25l3.015625 -3.71875q3.71875 2.296875 9.390625 7.609375l-3.375 3.359375zm52.052795 10.09375q-9.375 -4.78125 -15.390625 -6.375l0 18.421875l-4.078125 0l0 -35.40625l3.546875 0q2.125 0.171875 0.53125 1.40625l0 11.15625q8.671875 2.484375 17.515625 6.734375l-2.125 4.0625zm-0.34375 -15.578125q-3.015625 -3.71875 -6.015625 -6.015625l2.296875 -1.765625q3.0 2.296875 6.015625 6.015625l-2.296875 1.765625zm4.25 -3.359375q-2.3125 -3.015625 -5.84375 -5.84375l2.296875 -1.765625q3.015625 2.125 5.84375 5.84375l-2.296875 1.765625zm35.407776 5.84375l10.453125 0l0 3.890625l-10.28125 0l0 3.359375q0 13.28125 -13.984375 18.953125l-2.828125 -3.1875q12.75 -4.25 12.75 -15.40625l0 -3.71875l-11.6875 0l0.171875 9.03125l-3.890625 0l-0.171875 -9.03125l-9.921875 0l0 -3.890625l9.921875 0l-0.1875 -9.390625l3.71875 0q1.78125 0.1875 0.1875 1.78125l0.171875 7.609375l11.5 0l0 -10.796875l3.90625 0q1.765625 0.171875 0.171875 1.765625l0 9.03125zm15.40625 9.03125l0 -3.90625l39.484375 0l0 3.90625l-39.484375 0zm71.88562 -13.109375q8.859375 11.15625 12.578125 23.546875l-4.78125 1.59375q-4.4375 -13.984375 -11.515625 -22.296875l3.71875 -2.84375zm-13.453125 4.078125q1.421875 0.875 -0.359375 1.59375q-3.1875 11.15625 -10.265625 20.359375l-4.078125 -2.65625q7.796875 -9.390625 10.453125 -21.25l4.25 1.953125zm21.25 -13.8125q2.296875 1.953125 5.65625 5.484375l-2.296875 2.125q-3.1875 -3.53125 -5.671875 -5.65625l2.3125 -1.953125zm-4.25 2.65625q2.65625 2.484375 5.65625 6.015625l-2.65625 1.953125q-2.65625 -3.546875 -5.484375 -6.015625l2.484375 -1.953125zm38.59375 0.171875q1.953125 0.1875 0.171875 1.421875l0.53125 9.921875l13.109375 -1.421875l0.53125 3.359375l-13.109375 1.421875q1.25 12.21875 6.90625 16.640625q2.65625 2.125 3.015625 -1.0625l0.359375 -3.1875l3.71875 1.953125l-0.53125 2.65625q-1.59375 7.96875 -7.96875 3.53125q-7.96875 -5.484375 -9.21875 -20.1875l-9.90625 0.890625l-0.171875 -3.359375l9.546875 -0.890625l-0.53125 -12.03125l3.546875 0.34375zm-24.78125 17.703125q6.375 -5.125 9.375 -18.40625l3.90625 1.234375q1.0625 0.71875 -0.53125 0.890625q-0.53125 3.359375 -3.1875 9.5625q2.125 0.359375 0.53125 1.234375l0 25.328125l-3.546875 0l0 -21.078125q-2.296875 3.359375 -3.890625 4.609375l-2.65625 -3.375zm30.265625 -16.453125q3.375 2.46875 5.140625 4.59375l-3.1875 3.015625q-1.59375 -2.296875 -4.78125 -4.78125l2.828125 -2.828125z" fill-rule="nonzero"/><path fill="#000000" d="m1630.1853 450.65237l4.96875 0l9.375 13.453125l0.53125 0l9.390625 -13.453125l4.953125 0l-12.578125 16.828125l0 0.703125l10.28125 0l0 2.125l-10.28125 0l0 3.546875l10.28125 0l0 2.125l-10.28125 0l0 4.953125l-4.0625 0l0 -4.953125l-10.453125 0l0 -2.125l10.453125 0l0 -3.546875l-10.453125 0l0 -2.125l10.453125 0l0 -0.703125l-12.578125 -16.828125z" fill-rule="nonzero"/><path fill="#000000" d="m1669.2478 472.96487l4.1875 -0.359375q0.46875 3.0625 2.15625 4.609375q1.703125 1.53125 4.09375 1.53125q2.875 0 4.859375 -2.171875q2.0 -2.171875 2.0 -5.75q0 -3.40625 -1.921875 -5.375q-1.90625 -1.984375 -5.015625 -1.984375q-1.921875 0 -3.46875 0.875q-1.546875 0.875 -2.4375 2.28125l-3.734375 -0.5l3.140625 -16.65625l16.140625 0l0 3.796875l-12.953125 0l-1.75 8.71875q2.921875 -2.03125 6.125 -2.03125q4.25 0 7.171875 2.953125q2.921875 2.9375 2.921875 7.5625q0 4.40625 -2.5625 7.609375q-3.125 3.9375 -8.515625 3.9375q-4.4375 0 -7.234375 -2.46875q-2.796875 -2.484375 -3.203125 -6.578125zm37.9906 8.5l0 -7.765625l-14.078125 0l0 -3.65625l14.796875 -21.03125l3.265625 0l0 21.03125l4.375 0l0 3.65625l-4.375 0l0 7.765625l-3.984375 0zm0 -11.421875l0 -14.625l-10.15625 14.625l10.15625 0zm14.584351 11.421875l0 -4.53125l4.53125 0l0 4.53125q0 2.5 -0.890625 4.03125q-0.875 1.546875 -2.796875 2.390625l-1.109375 -1.703125q1.265625 -0.5625 1.859375 -1.640625q0.59375 -1.0625 0.65625 -3.078125l-2.25 0zm10.437378 -16.0q0 -5.75 1.1875 -9.25q1.1875 -3.515625 3.515625 -5.421875q2.34375 -1.90625 5.875 -1.90625q2.625 0 4.59375 1.046875q1.96875 1.046875 3.25 3.03125q1.28125 1.984375 2.015625 4.828125q0.734375 2.84375 0.734375 7.671875q0 5.703125 -1.1875 9.21875q-1.171875 3.5 -3.5 5.421875q-2.328125 1.90625 -5.90625 1.90625q-4.6875 0 -7.359375 -3.359375q-3.21875 -4.046875 -3.21875 -13.1875zm4.09375 0q0 7.984375 1.875 10.640625q1.875 2.640625 4.609375 2.640625q2.75 0 4.625 -2.65625q1.875 -2.65625 1.875 -10.625q0 -8.015625 -1.875 -10.640625q-1.875 -2.640625 -4.65625 -2.640625q-2.75 0 -4.390625 2.328125q-2.0625 2.96875 -2.0625 10.953125zm21.1156 0q0 -5.75 1.1875 -9.25q1.1875 -3.515625 3.515625 -5.421875q2.34375 -1.90625 5.875 -1.90625q2.625 0 4.59375 1.046875q1.96875 1.046875 3.25 3.03125q1.28125 1.984375 2.015625 4.828125q0.734375 2.84375 0.734375 7.671875q0 5.703125 -1.1875 9.21875q-1.171875 3.5 -3.5 5.421875q-2.328125 1.90625 -5.90625 1.90625q-4.6875 0 -7.359375 -3.359375q-3.21875 -4.046875 -3.21875 -13.1875zm4.09375 0q0 7.984375 1.875 10.640625q1.875 2.640625 4.609375 2.640625q2.75 0 4.625 -2.65625q1.875 -2.65625 1.875 -10.625q0 -8.015625 -1.875 -10.640625q-1.875 -2.640625 -4.65625 -2.640625q-2.75 0 -4.390625 2.328125q-2.0625 2.96875 -2.0625 10.953125zm21.1156 0q0 -5.75 1.1875 -9.25q1.1875 -3.515625 3.515625 -5.421875q2.34375 -1.90625 5.875 -1.90625q2.625 0 4.59375 1.046875q1.96875 1.046875 3.25 3.03125q1.28125 1.984375 2.015625 4.828125q0.734375 2.84375 0.734375 7.671875q0 5.703125 -1.1875 9.21875q-1.171875 3.5 -3.5 5.421875q-2.328125 1.90625 -5.90625 1.90625q-4.6875 0 -7.359375 -3.359375q-3.21875 -4.046875 -3.21875 -13.1875zm4.09375 0q0 7.984375 1.875 10.640625q1.875 2.640625 4.609375 2.640625q2.75 0 4.625 -2.65625q1.875 -2.65625 1.875 -10.625q0 -8.015625 -1.875 -10.640625q-1.875 -2.640625 -4.65625 -2.640625q-2.75 0 -4.390625 2.328125q-2.0625 2.96875 -2.0625 10.953125z" fill-rule="nonzero"/><path fill="#000000" d="m86.57382 571.2419q10.796875 -5.84375 15.578125 -13.28125q-4.953125 -3.0 -8.671875 -4.59375l2.125 -3.890625q3.890625 1.765625 8.859375 4.59375q2.46875 -5.125 4.234375 -13.8125l4.25 1.421875q1.25 0.359375 -0.171875 1.0625q-2.296875 8.84375 -4.78125 13.625q4.25 2.84375 6.90625 4.96875l-2.296875 4.0625q-3.546875 -3.0 -6.734375 -5.125q-6.546875 8.84375 -15.578125 14.34375l-3.71875 -3.375zm32.57959 -11.5l0 -3.90625l39.484375 0l0 3.90625l-39.484375 0zm67.994995 9.375q7.78125 -3.0 14.34375 -12.03125l2.46875 3.359375q-6.71875 9.203125 -17.0 13.28125l-1.40625 0.703125l-2.828125 -2.125l0.34375 -0.875l0 -28.515625l3.71875 0q1.59375 0.359375 0.359375 1.421875l0 24.78125zm-23.734375 4.78125q8.859375 -8.5 8.859375 -21.0625l0 -7.96875l3.71875 0q1.59375 0.359375 0.359375 1.421875l0 6.359375q0 14.875 -9.390625 23.5625l-3.546875 -2.3125zm74.546875 -23.1875l10.453125 0l0 3.890625l-10.28125 0l0 3.359375q0 13.28125 -13.984375 18.953125l-2.828125 -3.1875q12.75 -4.25 12.75 -15.40625l0 -3.71875l-11.6875 0l0.171875 9.03125l-3.890625 0l-0.171875 -9.03125l-9.921875 0l0 -3.890625l9.921875 0l-0.1875 -9.390625l3.71875 0q1.78125 0.1875 0.1875 1.78125l0.171875 7.609375l11.5 0l0 -10.796875l3.90625 0q1.765625 0.171875 0.171875 1.765625l0 9.03125zm15.40625 9.03125l0 -3.90625l39.484375 0l0 3.90625l-39.484375 0zm71.88562 -13.109375q8.859375 11.15625 12.578125 23.546875l-4.78125 1.59375q-4.4375 -13.984375 -11.515625 -22.296875l3.71875 -2.84375zm-13.453125 4.078125q1.421875 0.875 -0.359375 1.59375q-3.1875 11.15625 -10.265625 20.359375l-4.078125 -2.65625q7.796875 -9.390625 10.453125 -21.25l4.25 1.953125zm21.25 -13.8125q2.296875 1.953125 5.65625 5.484375l-2.296875 2.125q-3.1875 -3.53125 -5.671875 -5.65625l2.3125 -1.953125zm-4.25 2.65625q2.65625 2.484375 5.65625 6.015625l-2.65625 1.953125q-2.65625 -3.546875 -5.484375 -6.015625l2.484375 -1.953125z" fill-rule="nonzero"/><path fill="#000000" d="m1630.1853 543.445l4.96875 0l9.375 13.453125l0.53125 0l9.390625 -13.453125l4.953125 0l-12.578125 16.828125l0 0.703125l10.28125 0l0 2.125l-10.28125 0l0 3.546875l10.28125 0l0 2.125l-10.28125 0l0 4.953125l-4.0625 0l0 -4.953125l-10.453125 0l0 -2.125l10.453125 0l0 -3.546875l-10.453125 0l0 -2.125l10.453125 0l0 -0.703125l-12.578125 -16.828125z" fill-rule="nonzero"/><path fill="#000000" d="m1684.2634 574.2575l-3.984375 0l0 -25.390625q-1.4375 1.375 -3.78125 2.75q-2.328125 1.375 -4.1875 2.0625l0 -3.859375q3.34375 -1.5625 5.84375 -3.796875q2.5 -2.25 3.53125 -4.34375l2.578125 0l0 32.578125zm10.193726 -16.0q0 -5.75 1.1875 -9.25q1.1875 -3.515625 3.515625 -5.421875q2.34375 -1.90625 5.875 -1.90625q2.625 0 4.59375 1.046875q1.96875 1.046875 3.25 3.03125q1.28125 1.984375 2.015625 4.828125q0.734375 2.84375 0.734375 7.671875q0 5.703125 -1.1875 9.21875q-1.171875 3.5 -3.5 5.421875q-2.328125 1.90625 -5.90625 1.90625q-4.6875 0 -7.359375 -3.359375q-3.21875 -4.046875 -3.21875 -13.1875zm4.09375 0q0 7.984375 1.875 10.640625q1.875 2.640625 4.609375 2.640625q2.75 0 4.625 -2.65625q1.875 -2.65625 1.875 -10.625q0 -8.015625 -1.875 -10.640625q-1.875 -2.640625 -4.65625 -2.640625q-2.75 0 -4.390625 2.328125q-2.0625 2.96875 -2.0625 10.953125zm23.27185 16.0l0 -4.53125l4.53125 0l0 4.53125q0 2.5 -0.890625 4.03125q-0.875 1.546875 -2.796875 2.390625l-1.109375 -1.703125q1.265625 -0.5625 1.859375 -1.640625q0.59375 -1.0625 0.65625 -3.078125l-2.25 0zm16.578003 -17.59375q-2.484375 -0.90625 -3.6875 -2.59375q-1.1875 -1.6875 -1.1875 -4.03125q0 -3.53125 2.546875 -5.9375q2.546875 -2.421875 6.765625 -2.421875q4.25 0 6.84375 2.46875q2.59375 2.46875 2.59375 6.0q0 2.265625 -1.1875 3.9375q-1.1875 1.671875 -3.59375 2.578125q2.984375 0.96875 4.546875 3.140625q1.5625 2.171875 1.5625 5.171875q0 4.171875 -2.953125 7.0q-2.9375 2.828125 -7.734375 2.828125q-4.8125 0 -7.75 -2.84375q-2.9375 -2.84375 -2.9375 -7.09375q0 -3.15625 1.59375 -5.296875q1.609375 -2.140625 4.578125 -2.90625zm-0.796875 -6.75q0 2.296875 1.484375 3.765625q1.484375 1.453125 3.84375 1.453125q2.296875 0 3.765625 -1.4375q1.484375 -1.453125 1.484375 -3.5625q0 -2.1875 -1.515625 -3.671875q-1.515625 -1.5 -3.78125 -1.5q-2.28125 0 -3.78125 1.46875q-1.5 1.453125 -1.5 3.484375zm-1.28125 14.984375q0 1.703125 0.796875 3.296875q0.8125 1.59375 2.40625 2.46875q1.59375 0.875 3.4375 0.875q2.84375 0 4.703125 -1.828125q1.859375 -1.84375 1.859375 -4.6875q0 -2.875 -1.921875 -4.75q-1.90625 -1.890625 -4.78125 -1.890625q-2.8125 0 -4.65625 1.859375q-1.84375 1.859375 -1.84375 4.65625zm21.14685 -6.640625q0 -5.75 1.1875 -9.25q1.1875 -3.515625 3.515625 -5.421875q2.34375 -1.90625 5.875 -1.90625q2.625 0 4.59375 1.046875q1.96875 1.046875 3.25 3.03125q1.28125 1.984375 2.015625 4.828125q0.734375 2.84375 0.734375 7.671875q0 5.703125 -1.1875 9.21875q-1.171875 3.5 -3.5 5.421875q-2.328125 1.90625 -5.90625 1.90625q-4.6875 0 -7.359375 -3.359375q-3.21875 -4.046875 -3.21875 -13.1875zm4.09375 0q0 7.984375 1.875 10.640625q1.875 2.640625 4.609375 2.640625q2.75 0 4.625 -2.65625q1.875 -2.65625 1.875 -10.625q0 -8.015625 -1.875 -10.640625q-1.875 -2.640625 -4.65625 -2.640625q-2.75 0 -4.390625 2.328125q-2.0625 2.96875 -2.0625 10.953125zm21.1156 0q0 -5.75 1.1875 -9.25q1.1875 -3.515625 3.515625 -5.421875q2.34375 -1.90625 5.875 -1.90625q2.625 0 4.59375 1.046875q1.96875 1.046875 3.25 3.03125q1.28125 1.984375 2.015625 4.828125q0.734375 2.84375 0.734375 7.671875q0 5.703125 -1.1875 9.21875q-1.171875 3.5 -3.5 5.421875q-2.328125 1.90625 -5.90625 1.90625q-4.6875 0 -7.359375 -3.359375q-3.21875 -4.046875 -3.21875 -13.1875zm4.09375 0q0 7.984375 1.875 10.640625q1.875 2.640625 4.609375 2.640625q2.75 0 4.625 -2.65625q1.875 -2.65625 1.875 -10.625q0 -8.015625 -1.875 -10.640625q-1.875 -2.640625 -4.65625 -2.640625q-2.75 0 -4.390625 2.328125q-2.0625 2.96875 -2.0625 10.953125z" fill-rule="nonzero"/><path fill="#000000" d="m109.23007 656.59705q-9.375 -4.78125 -15.390625 -6.375l0 18.421875l-4.078125 0l0 -35.40625l3.546875 0q2.125 0.171875 0.53125 1.40625l0 11.15625q8.671875 2.484375 17.515625 6.734375l-2.125 4.0625zm-0.34375 -15.578125q-3.015625 -3.71875 -6.015625 -6.015625l2.296875 -1.765625q3.0 2.296875 6.015625 6.015625l-2.296875 1.765625zm4.25 -3.359375q-2.3125 -3.015625 -5.84375 -5.84375l2.296875 -1.765625q3.015625 2.125 5.84375 5.84375l-2.296875 1.765625zm5.485901 26.375q10.796875 -5.84375 15.578125 -13.28125q-4.953125 -3.0 -8.671875 -4.59375l2.125 -3.890625q3.890625 1.765625 8.859375 4.59375q2.46875 -5.125 4.234375 -13.8125l4.25 1.421875q1.25 0.359375 -0.171875 1.0625q-2.296875 8.84375 -4.78125 13.625q4.25 2.84375 6.90625 4.96875l-2.296875 4.0625q-3.546875 -3.0 -6.734375 -5.125q-6.546875 8.84375 -15.578125 14.34375l-3.71875 -3.375zm33.11084 -9.90625q18.59375 -7.796875 28.15625 -21.953125l3.359375 2.828125q1.421875 1.0625 -1.234375 1.59375q-3.375 4.421875 -8.6875 9.03125l0 24.078125l-4.0625 0l0 -20.71875q-6.203125 4.78125 -14.515625 8.671875l-3.015625 -3.53125zm71.532166 -7.625q-9.390625 19.484375 -31.515625 20.546875q-0.890625 2.296875 -1.765625 0.359375l-1.421875 -4.609375q23.015625 -0.53125 30.984375 -18.9375l3.71875 2.640625zm-24.96875 0q-4.78125 -4.421875 -9.03125 -7.25l3.015625 -3.71875q3.71875 2.296875 9.390625 7.609375l-3.375 3.359375zm54.53717 -13.984375q1.953125 0.1875 0.171875 1.421875l0.53125 9.921875l13.109375 -1.421875l0.53125 3.359375l-13.109375 1.421875q1.25 12.21875 6.90625 16.640625q2.65625 2.125 3.015625 -1.0625l0.359375 -3.1875l3.71875 1.953125l-0.53125 2.65625q-1.59375 7.96875 -7.96875 3.53125q-7.96875 -5.484375 -9.21875 -20.1875l-9.90625 0.890625l-0.171875 -3.359375l9.546875 -0.890625l-0.53125 -12.03125l3.546875 0.34375zm-24.78125 17.703125q6.375 -5.125 9.375 -18.40625l3.90625 1.234375q1.0625 0.71875 -0.53125 0.890625q-0.53125 3.359375 -3.1875 9.5625q2.125 0.359375 0.53125 1.234375l0 25.328125l-3.546875 0l0 -21.078125q-2.296875 3.359375 -3.890625 4.609375l-2.65625 -3.375zm30.265625 -16.453125q3.375 2.46875 5.140625 4.59375l-3.1875 3.015625q-1.59375 -2.296875 -4.78125 -4.78125l2.828125 -2.828125z" fill-rule="nonzero"/><path fill="#000000" d="m1655.3947 636.2377l4.96875 0l9.375 13.453125l0.53125 0l9.390625 -13.453125l4.953125 0l-12.578125 16.828125l0 0.703125l10.28125 0l0 2.125l-10.28125 0l0 3.546875l10.28125 0l0 2.125l-10.28125 0l0 4.953125l-4.0625 0l0 -4.953125l-10.453125 0l0 -2.125l10.453125 0l0 -3.546875l-10.453125 0l0 -2.125l10.453125 0l0 -0.703125l-12.578125 -16.828125z" fill-rule="nonzero"/><path fill="#000000" d="m1709.4728 667.0502l-3.984375 0l0 -25.390625q-1.4375 1.375 -3.78125 2.75q-2.328125 1.375 -4.1875 2.0625l0 -3.859375q3.34375 -1.5625 5.84375 -3.796875q2.5 -2.25 3.53125 -4.34375l2.578125 0l0 32.578125zm12.349976 0l0 -4.53125l4.53125 0l0 4.53125q0 2.5 -0.890625 4.03125q-0.875 1.546875 -2.796875 2.390625l-1.109375 -1.703125q1.265625 -0.5625 1.859375 -1.640625q0.59375 -1.0625 0.65625 -3.078125l-2.25 0zm10.703003 -28.203125l0 -3.828125l21.015625 0l0 3.109375q-3.109375 3.296875 -6.15625 8.765625q-3.03125 5.453125 -4.6875 11.234375q-1.203125 4.078125 -1.53125 8.921875l-4.09375 0q0.0625 -3.828125 1.5 -9.25q1.4375 -5.421875 4.125 -10.453125q2.6875 -5.046875 5.71875 -8.5l-15.890625 0zm24.943726 12.203125q0 -5.75 1.1875 -9.25q1.1875 -3.515625 3.515625 -5.421875q2.34375 -1.90625 5.875 -1.90625q2.625 0 4.59375 1.046875q1.96875 1.046875 3.25 3.03125q1.28125 1.984375 2.015625 4.828125q0.734375 2.84375 0.734375 7.671875q0 5.703125 -1.1875 9.21875q-1.171875 3.5 -3.5 5.421875q-2.328125 1.90625 -5.90625 1.90625q-4.6875 0 -7.359375 -3.359375q-3.21875 -4.046875 -3.21875 -13.1875zm4.09375 0q0 7.984375 1.875 10.640625q1.875 2.640625 4.609375 2.640625q2.75 0 4.625 -2.65625q1.875 -2.65625 1.875 -10.625q0 -8.015625 -1.875 -10.640625q-1.875 -2.640625 -4.65625 -2.640625q-2.75 0 -4.390625 2.328125q-2.0625 2.96875 -2.0625 10.953125zm21.1156 0q0 -5.75 1.1875 -9.25q1.1875 -3.515625 3.515625 -5.421875q2.34375 -1.90625 5.875 -1.90625q2.625 0 4.59375 1.046875q1.96875 1.046875 3.25 3.03125q1.28125 1.984375 2.015625 4.828125q0.734375 2.84375 0.734375 7.671875q0 5.703125 -1.1875 9.21875q-1.171875 3.5 -3.5 5.421875q-2.328125 1.90625 -5.90625 1.90625q-4.6875 0 -7.359375 -3.359375q-3.21875 -4.046875 -3.21875 -13.1875zm4.09375 0q0 7.984375 1.875 10.640625q1.875 2.640625 4.609375 2.640625q2.75 0 4.625 -2.65625q1.875 -2.65625 1.875 -10.625q0 -8.015625 -1.875 -10.640625q-1.875 -2.640625 -4.65625 -2.640625q-2.75 0 -4.390625 2.328125q-2.0625 2.96875 -2.0625 10.953125z" fill-rule="nonzero"/><path fill="#000000" d="m84.38632 759.84283l12.453125 -32.453125l4.625 0l13.28125 32.453125l-4.890625 0l-3.78125 -9.828125l-13.5625 0l-3.5625 9.828125l-4.5625 0zm9.359375 -13.328125l11.0 0l-3.390625 -8.984375q-1.546875 -4.09375 -2.296875 -6.71875q-0.625 3.109375 -1.75 6.1875l-3.5625 9.515625zm23.921005 22.34375l0 -32.515625l3.640625 0l0 3.046875q1.28125 -1.796875 2.890625 -2.6875q1.625 -0.890625 3.921875 -0.890625q3.0 0 5.296875 1.546875q2.3125 1.546875 3.484375 4.375q1.171875 2.8125 1.171875 6.1875q0 3.59375 -1.296875 6.484375q-1.28125 2.890625 -3.75 4.4375q-2.46875 1.53125 -5.203125 1.53125q-1.984375 0 -3.578125 -0.84375q-1.578125 -0.84375 -2.59375 -2.125l0 11.453125l-3.984375 0zm3.609375 -20.640625q0 4.546875 1.828125 6.71875q1.84375 2.15625 4.453125 2.15625q2.65625 0 4.546875 -2.234375q1.90625 -2.25 1.90625 -6.96875q0 -4.484375 -1.859375 -6.71875q-1.84375 -2.25 -4.40625 -2.25q-2.546875 0 -4.515625 2.390625q-1.953125 2.375 -1.953125 6.90625zm21.599976 20.640625l0 -32.515625l3.640625 0l0 3.046875q1.28125 -1.796875 2.890625 -2.6875q1.625 -0.890625 3.921875 -0.890625q3.0 0 5.296875 1.546875q2.3125 1.546875 3.484375 4.375q1.171875 2.8125 1.171875 6.1875q0 3.59375 -1.296875 6.484375q-1.28125 2.890625 -3.75 4.4375q-2.46875 1.53125 -5.203125 1.53125q-1.984375 0 -3.578125 -0.84375q-1.578125 -0.84375 -2.59375 -2.125l0 11.453125l-3.984375 0zm3.609375 -20.640625q0 4.546875 1.828125 6.71875q1.84375 2.15625 4.453125 2.15625q2.65625 0 4.546875 -2.234375q1.90625 -2.25 1.90625 -6.96875q0 -4.484375 -1.859375 -6.71875q-1.84375 -2.25 -4.40625 -2.25q-2.546875 0 -4.515625 2.390625q-1.953125 2.375 -1.953125 6.90625zm21.52185 11.625l0 -32.453125l3.984375 0l0 32.453125l-3.984375 0zm26.24234 -7.5625l4.109375 0.5q-0.96875 3.609375 -3.609375 5.609375q-2.625 1.984375 -6.71875 1.984375q-5.15625 0 -8.1875 -3.171875q-3.015625 -3.1875 -3.015625 -8.90625q0 -5.9375 3.046875 -9.203125q3.0625 -3.28125 7.9375 -3.28125q4.71875 0 7.703125 3.203125q2.984375 3.203125 2.984375 9.03125q0 0.359375 -0.015625 1.0625l-17.53125 0q0.21875 3.875 2.1875 5.9375q1.96875 2.046875 4.90625 2.046875q2.203125 0 3.75 -1.140625q1.546875 -1.15625 2.453125 -3.671875zm-13.078125 -6.453125l13.125 0q-0.265625 -2.953125 -1.5 -4.4375q-1.90625 -2.3125 -4.9375 -2.3125q-2.75 0 -4.625 1.84375q-1.859375 1.828125 -2.0625 4.90625zm35.302963 14.015625l0 -32.453125l11.171875 0q3.78125 0 5.78125 0.46875q2.78125 0.640625 4.75 2.328125q2.578125 2.171875 3.84375 5.546875q1.28125 3.375 1.28125 7.703125q0 3.703125 -0.875 6.5625q-0.859375 2.84375 -2.21875 4.71875q-1.34375 1.875 -2.953125 2.953125q-1.59375 1.0625 -3.859375 1.625q-2.265625 0.546875 -5.21875 0.546875l-11.703125 0zm4.296875 -3.828125l6.921875 0q3.203125 0 5.03125 -0.59375q1.828125 -0.609375 2.921875 -1.6875q1.515625 -1.53125 2.359375 -4.109375q0.859375 -2.578125 0.859375 -6.25q0 -5.09375 -1.671875 -7.828125q-1.671875 -2.734375 -4.0625 -3.65625q-1.71875 -0.671875 -5.546875 -0.671875l-6.8125 0l0 24.796875zm44.015778 -3.734375l4.109375 0.5q-0.96875 3.609375 -3.609375 5.609375q-2.625 1.984375 -6.71875 1.984375q-5.15625 0 -8.1875 -3.171875q-3.015625 -3.1875 -3.015625 -8.90625q0 -5.9375 3.046875 -9.203125q3.0625 -3.28125 7.9375 -3.28125q4.71875 0 7.703125 3.203125q2.984375 3.203125 2.984375 9.03125q0 0.359375 -0.015625 1.0625l-17.53125 0q0.21875 3.875 2.1875 5.9375q1.96875 2.046875 4.90625 2.046875q2.203125 0 3.75 -1.140625q1.546875 -1.15625 2.453125 -3.671875zm-13.078125 -6.453125l13.125 0q-0.265625 -2.953125 -1.5 -4.4375q-1.90625 -2.3125 -4.9375 -2.3125q-2.75 0 -4.625 1.84375q-1.859375 1.828125 -2.0625 4.90625zm28.724976 14.015625l-8.9375 -23.5l4.203125 0l5.046875 14.078125q0.8125 2.265625 1.5 4.734375q0.53125 -1.859375 1.484375 -4.46875l5.21875 -14.34375l4.109375 0l-8.90625 23.5l-3.71875 0zm32.226562 -7.5625l4.109375 0.5q-0.96875 3.609375 -3.609375 5.609375q-2.625 1.984375 -6.71875 1.984375q-5.15625 0 -8.1875 -3.171875q-3.015625 -3.1875 -3.015625 -8.90625q0 -5.9375 3.046875 -9.203125q3.0625 -3.28125 7.9375 -3.28125q4.71875 0 7.703125 3.203125q2.984375 3.203125 2.984375 9.03125q0 0.359375 -0.015625 1.0625l-17.53125 0q0.21875 3.875 2.1875 5.9375q1.96875 2.046875 4.90625 2.046875q2.203125 0 3.75 -1.140625q1.546875 -1.15625 2.453125 -3.671875zm-13.078125 -6.453125l13.125 0q-0.265625 -2.953125 -1.5 -4.4375q-1.90625 -2.3125 -4.9375 -2.3125q-2.75 0 -4.625 1.84375q-1.859375 1.828125 -2.0625 4.90625zm22.1156 14.015625l0 -32.453125l3.984375 0l0 32.453125l-3.984375 0zm8.664215 -11.75q0 -6.53125 3.640625 -9.671875q3.03125 -2.609375 7.390625 -2.609375q4.84375 0 7.921875 3.171875q3.078125 3.171875 3.078125 8.78125q0 4.53125 -1.359375 7.140625q-1.359375 2.59375 -3.96875 4.03125q-2.59375 1.4375 -5.671875 1.4375q-4.9375 0 -7.984375 -3.15625q-3.046875 -3.171875 -3.046875 -9.125zm4.09375 0q0 4.515625 1.96875 6.765625q1.984375 2.234375 4.96875 2.234375q2.96875 0 4.9375 -2.25q1.96875 -2.265625 1.96875 -6.890625q0 -4.359375 -1.984375 -6.59375q-1.984375 -2.25 -4.921875 -2.25q-2.984375 0 -4.96875 2.234375q-1.96875 2.234375 -1.96875 6.75zm22.599976 20.765625l0 -32.515625l3.640625 0l0 3.046875q1.28125 -1.796875 2.890625 -2.6875q1.625 -0.890625 3.921875 -0.890625q3.0 0 5.296875 1.546875q2.3125 1.546875 3.484375 4.375q1.171875 2.8125 1.171875 6.1875q0 3.59375 -1.296875 6.484375q-1.28125 2.890625 -3.75 4.4375q-2.46875 1.53125 -5.203125 1.53125q-1.984375 0 -3.578125 -0.84375q-1.578125 -0.84375 -2.59375 -2.125l0 11.453125l-3.984375 0zm3.609375 -20.640625q0 4.546875 1.828125 6.71875q1.84375 2.15625 4.453125 2.15625q2.65625 0 4.546875 -2.234375q1.90625 -2.25 1.90625 -6.96875q0 -4.484375 -1.859375 -6.71875q-1.84375 -2.25 -4.40625 -2.25q-2.546875 0 -4.515625 2.390625q-1.953125 2.375 -1.953125 6.90625zm37.693726 4.0625l4.109375 0.5q-0.96875 3.609375 -3.609375 5.609375q-2.625 1.984375 -6.71875 1.984375q-5.15625 0 -8.1875 -3.171875q-3.015625 -3.1875 -3.015625 -8.90625q0 -5.9375 3.046875 -9.203125q3.0625 -3.28125 7.9375 -3.28125q4.71875 0 7.703125 3.203125q2.984375 3.203125 2.984375 9.03125q0 0.359375 -0.015625 1.0625l-17.53125 0q0.21875 3.875 2.1875 5.9375q1.96875 2.046875 4.90625 2.046875q2.203125 0 3.75 -1.140625q1.546875 -1.15625 2.453125 -3.671875zm-13.078125 -6.453125l13.125 0q-0.265625 -2.953125 -1.5 -4.4375q-1.90625 -2.3125 -4.9375 -2.3125q-2.75 0 -4.625 1.84375q-1.859375 1.828125 -2.0625 4.90625zm22.14685 14.015625l0 -23.5l3.59375 0l0 3.5625q1.375 -2.5 2.53125 -3.296875q1.15625 -0.796875 2.5625 -0.796875q2.015625 0 4.09375 1.28125l-1.375 3.6875q-1.46875 -0.859375 -2.921875 -0.859375q-1.3125 0 -2.359375 0.796875q-1.03125 0.78125 -1.46875 2.171875q-0.671875 2.125 -0.671875 4.640625l0 12.3125l-3.984375 0zm28.250732 0l0 -32.453125l12.234375 0q3.234375 0 4.9375 0.3125q2.390625 0.40625 4.0 1.53125q1.625 1.109375 2.609375 3.125q0.984375 2.015625 0.984375 4.421875q0 4.140625 -2.640625 7.015625q-2.625 2.859375 -9.515625 2.859375l-8.3125 0l0 13.1875l-4.296875 0zm4.296875 -17.015625l8.375 0q4.171875 0 5.921875 -1.546875q1.75 -1.5625 1.75 -4.359375q0 -2.046875 -1.03125 -3.484375q-1.03125 -1.453125 -2.71875 -1.921875q-1.078125 -0.296875 -4.0 -0.296875l-8.296875 0l0 11.609375zm25.374146 17.015625l0 -23.5l3.59375 0l0 3.5625q1.375 -2.5 2.53125 -3.296875q1.15625 -0.796875 2.5625 -0.796875q2.015625 0 4.09375 1.28125l-1.375 3.6875q-1.46875 -0.859375 -2.921875 -0.859375q-1.3125 0 -2.359375 0.796875q-1.03125 0.78125 -1.46875 2.171875q-0.671875 2.125 -0.671875 4.640625l0 12.3125l-3.984375 0zm13.6571045 -11.75q0 -6.53125 3.640625 -9.671875q3.03125 -2.609375 7.390625 -2.609375q4.84375 0 7.921875 3.171875q3.078125 3.171875 3.078125 8.78125q0 4.53125 -1.359375 7.140625q-1.359375 2.59375 -3.96875 4.03125q-2.59375 1.4375 -5.671875 1.4375q-4.9375 0 -7.984375 -3.15625q-3.046875 -3.171875 -3.046875 -9.125zm4.09375 0q0 4.515625 1.96875 6.765625q1.984375 2.234375 4.96875 2.234375q2.96875 0 4.9375 -2.25q1.96875 -2.265625 1.96875 -6.890625q0 -4.359375 -1.984375 -6.59375q-1.984375 -2.25 -4.921875 -2.25q-2.984375 0 -4.96875 2.234375q-1.96875 2.234375 -1.96875 6.75zm21.8656 13.703125l3.875 0.5625q0.25 1.796875 1.359375 2.625q1.484375 1.09375 4.0468445 1.09375q2.765625 0 4.265625 -1.109375q1.515625 -1.09375 2.046875 -3.09375q0.3125 -1.21875 0.28125 -5.109375q-2.609375 3.078125 -6.5 3.078125q-4.8593445 0 -7.5155945 -3.5q-2.65625 -3.5 -2.65625 -8.390625q0 -3.359375 1.21875 -6.203125q1.21875 -2.84375 3.53125 -4.390625q2.3125 -1.546875 5.4374695 -1.546875q4.15625 0 6.859375 3.359375l0 -2.828125l3.671875 0l0 20.3125q0 5.484375 -1.125 7.78125q-1.109375 2.296875 -3.53125 3.625q-2.421875 1.328125 -5.96875 1.328125q-4.2030945 0 -6.7968445 -1.90625q-2.578125 -1.890625 -2.5 -5.6875zm3.3125 -14.125q0 4.625 1.828125 6.75q1.84375 2.125 4.6093445 2.125q2.734375 0 4.59375 -2.109375q1.859375 -2.125 1.859375 -6.640625q0 -4.3125 -1.921875 -6.5q-1.90625 -2.1875 -4.609375 -2.1875q-2.6405945 0 -4.4999695 2.15625q-1.859375 2.15625 -1.859375 6.40625zm22.58432 12.171875l0 -23.5l3.59375 0l0 3.5625q1.375 -2.5 2.53125 -3.296875q1.15625 -0.796875 2.5625 -0.796875q2.015625 0 4.09375 1.28125l-1.375 3.6875q-1.46875 -0.859375 -2.921875 -0.859375q-1.3125 0 -2.359375 0.796875q-1.03125 0.78125 -1.46875 2.171875q-0.671875 2.125 -0.671875 4.640625l0 12.3125l-3.984375 0zm30.48523 -2.90625q-2.21875 1.890625 -4.265625 2.671875q-2.046875 0.765625 -4.390625 0.765625q-3.875 0 -5.953125 -1.890625q-2.078125 -1.890625 -2.078125 -4.84375q0 -1.71875 0.78125 -3.140625q0.78125 -1.4375 2.046875 -2.296875q1.28125 -0.859375 2.875 -1.3125q1.171875 -0.296875 3.546875 -0.59375q4.828125 -0.578125 7.109375 -1.375q0.015625 -0.8125 0.015625 -1.03125q0 -2.4375 -1.125 -3.4375q-1.53125 -1.34375 -4.546875 -1.34375q-2.796875 0 -4.140625 0.984375q-1.34375 0.984375 -1.984375 3.484375l-3.890625 -0.53125q0.53125 -2.5 1.75 -4.03125q1.21875 -1.546875 3.515625 -2.375q2.296875 -0.828125 5.328125 -0.828125q3.015625 0 4.890625 0.703125q1.890625 0.703125 2.765625 1.78125q0.890625 1.078125 1.25 2.71875q0.1875 1.015625 0.1875 3.671875l0 5.3125q0 5.546875 0.25 7.03125q0.265625 1.46875 1.015625 2.8125l-4.15625 0q-0.625 -1.234375 -0.796875 -2.90625zm-0.328125 -8.890625q-2.171875 0.890625 -6.515625 1.5q-2.453125 0.359375 -3.46875 0.8125q-1.015625 0.4375 -1.578125 1.296875q-0.546875 0.84375 -0.546875 1.875q0 1.59375 1.203125 2.65625q1.203125 1.0625 3.53125 1.0625q2.296875 0 4.09375 -1.0q1.796875 -1.015625 2.640625 -2.765625q0.640625 -1.34375 0.640625 -3.984375l0 -1.453125zm10.193726 11.796875l0 -23.5l3.5625 0l0 3.296875q1.109375 -1.734375 2.9375 -2.78125q1.84375 -1.046875 4.1875 -1.046875q2.625 0 4.28125 1.078125q1.671875 1.078125 2.359375 3.03125q2.796875 -4.109375 7.265625 -4.109375q3.5 0 5.375 1.9375q1.890625 1.9375 1.890625 5.953125l0 16.140625l-3.96875 0l0 -14.8125q0 -2.390625 -0.390625 -3.4375q-0.390625 -1.046875 -1.40625 -1.6875q-1.015625 -0.640625 -2.390625 -0.640625q-2.46875 0 -4.109375 1.65625q-1.640625 1.640625 -1.640625 5.265625l0 13.65625l-3.984375 0l0 -15.265625q0 -2.65625 -0.984375 -3.984375q-0.96875 -1.328125 -3.171875 -1.328125q-1.6875 0 -3.125 0.890625q-1.421875 0.875 -2.0625 2.578125q-0.640625 1.703125 -0.640625 4.921875l0 12.1875l-3.984375 0z" fill-rule="nonzero"/><path fill="#000000" d="m1630.1853 729.03033l4.96875 0l9.375 13.453125l0.53125 0l9.390625 -13.453125l4.953125 0l-12.578125 16.828125l0 0.703125l10.28125 0l0 2.125l-10.28125 0l0 3.546875l10.28125 0l0 2.125l-10.28125 0l0 4.953125l-4.0625 0l0 -4.953125l-10.453125 0l0 -2.125l10.453125 0l0 -3.546875l-10.453125 0l0 -2.125l10.453125 0l0 -0.703125l-12.578125 -16.828125z" fill-rule="nonzero"/><path fill="#000000" d="m1684.2634 759.84283l-3.984375 0l0 -25.390625q-1.4375 1.375 -3.78125 2.75q-2.328125 1.375 -4.1875 2.0625l0 -3.859375q3.34375 -1.5625 5.84375 -3.796875q2.5 -2.25 3.53125 -4.34375l2.578125 0l0 32.578125zm31.131226 -3.828125l0 3.828125l-21.4375 0q-0.046875 -1.4375 0.46875 -2.765625q0.8125 -2.1875 2.609375 -4.3125q1.8125 -2.125 5.21875 -4.921875q5.296875 -4.328125 7.15625 -6.859375q1.859375 -2.546875 1.859375 -4.796875q0 -2.375 -1.703125 -4.0q-1.6875 -1.625 -4.40625 -1.625q-2.890625 0 -4.625 1.734375q-1.71875 1.71875 -1.734375 4.765625l-4.09375 -0.40625q0.421875 -4.59375 3.15625 -6.984375q2.75 -2.40625 7.375 -2.40625q4.671875 0 7.390625 2.59375q2.734375 2.578125 2.734375 6.40625q0 1.953125 -0.796875 3.84375q-0.796875 1.875 -2.65625 3.953125q-1.84375 2.078125 -6.140625 5.703125q-3.578125 3.015625 -4.609375 4.09375q-1.015625 1.078125 -1.671875 2.15625l15.90625 0zm6.4281006 3.828125l0 -4.53125l4.53125 0l0 4.53125q0 2.5 -0.890625 4.03125q-0.875 1.546875 -2.796875 2.390625l-1.109375 -1.703125q1.265625 -0.5625 1.859375 -1.640625q0.59375 -1.0625 0.65625 -3.078125l-2.25 0zm16.578003 -17.59375q-2.484375 -0.90625 -3.6875 -2.59375q-1.1875 -1.6875 -1.1875 -4.03125q0 -3.53125 2.546875 -5.9375q2.546875 -2.421875 6.765625 -2.421875q4.25 0 6.84375 2.46875q2.59375 2.46875 2.59375 6.0q0 2.265625 -1.1875 3.9375q-1.1875 1.671875 -3.59375 2.578125q2.984375 0.96875 4.546875 3.140625q1.5625 2.171875 1.5625 5.171875q0 4.171875 -2.953125 7.0q-2.9375 2.828125 -7.734375 2.828125q-4.8125 0 -7.75 -2.84375q-2.9375 -2.84375 -2.9375 -7.09375q0 -3.15625 1.59375 -5.296875q1.609375 -2.140625 4.578125 -2.90625zm-0.796875 -6.75q0 2.296875 1.484375 3.765625q1.484375 1.453125 3.84375 1.453125q2.296875 0 3.765625 -1.4375q1.484375 -1.453125 1.484375 -3.5625q0 -2.1875 -1.515625 -3.671875q-1.515625 -1.5 -3.78125 -1.5q-2.28125 0 -3.78125 1.46875q-1.5 1.453125 -1.5 3.484375zm-1.28125 14.984375q0 1.703125 0.796875 3.296875q0.8125 1.59375 2.40625 2.46875q1.59375 0.875 3.4375 0.875q2.84375 0 4.703125 -1.828125q1.859375 -1.84375 1.859375 -4.6875q0 -2.875 -1.921875 -4.75q-1.90625 -1.890625 -4.78125 -1.890625q-2.8125 0 -4.65625 1.859375q-1.84375 1.859375 -1.84375 4.65625zm21.14685 -6.640625q0 -5.75 1.1875 -9.25q1.1875 -3.515625 3.515625 -5.421875q2.34375 -1.90625 5.875 -1.90625q2.625 0 4.59375 1.046875q1.96875 1.046875 3.25 3.03125q1.28125 1.984375 2.015625 4.828125q0.734375 2.84375 0.734375 7.671875q0 5.703125 -1.1875 9.21875q-1.171875 3.5 -3.5 5.421875q-2.328125 1.90625 -5.90625 1.90625q-4.6875 0 -7.359375 -3.359375q-3.21875 -4.046875 -3.21875 -13.1875zm4.09375 0q0 7.984375 1.875 10.640625q1.875 2.640625 4.609375 2.640625q2.75 0 4.625 -2.65625q1.875 -2.65625 1.875 -10.625q0 -8.015625 -1.875 -10.640625q-1.875 -2.640625 -4.65625 -2.640625q-2.75 0 -4.390625 2.328125q-2.0625 2.96875 -2.0625 10.953125zm21.1156 0q0 -5.75 1.1875 -9.25q1.1875 -3.515625 3.515625 -5.421875q2.34375 -1.90625 5.875 -1.90625q2.625 0 4.59375 1.046875q1.96875 1.046875 3.25 3.03125q1.28125 1.984375 2.015625 4.828125q0.734375 2.84375 0.734375 7.671875q0 5.703125 -1.1875 9.21875q-1.171875 3.5 -3.5 5.421875q-2.328125 1.90625 -5.90625 1.90625q-4.6875 0 -7.359375 -3.359375q-3.21875 -4.046875 -3.21875 -13.1875zm4.09375 0q0 7.984375 1.875 10.640625q1.875 2.640625 4.609375 2.640625q2.75 0 4.625 -2.65625q1.875 -2.65625 1.875 -10.625q0 -8.015625 -1.875 -10.640625q-1.875 -2.640625 -4.65625 -2.640625q-2.75 0 -4.390625 2.328125q-2.0625 2.96875 -2.0625 10.953125z" fill-rule="nonzero"/></g></svg>